<svg width="142" height="47" viewBox="0 0 142 47" fill="none" xmlns="http://www.w3.org/2000/svg">
<path d="M130.692 0.00015275H11.3144C10.8792 0.00015275 10.4493 0.00015275 10.0153 0.00250275C9.65202 0.00485275 9.29162 0.0116795 8.92483 0.0174252C8.12801 0.0267099 7.33306 0.0961224 6.5469 0.225059C5.76183 0.356804 5.00136 0.605179 4.29121 0.961784C3.58192 1.32141 2.93382 1.7887 2.37043 2.34671C1.80408 2.90315 1.33198 3.54632 0.972286 4.25149C0.611602 4.95526 0.361503 5.70941 0.230626 6.48789C0.0985054 7.2654 0.0274098 8.05186 0.0179778 8.84024C0.00696567 9.2005 0.00580274 9.56195 0 9.92225V37.0815C0.00580274 37.4463 0.00696567 37.7998 0.0179778 38.1647C0.0274127 38.9531 0.0985083 39.7395 0.230626 40.517C0.361142 41.2959 0.611256 42.0505 0.972286 42.7545C1.33181 43.4574 1.80398 44.098 2.37043 44.6513C2.93169 45.2118 3.5802 45.6794 4.29121 46.0363C5.00136 46.3939 5.76175 46.6437 6.5469 46.7775C7.3332 46.9054 8.12806 46.9748 8.92483 46.9852C9.29162 46.9932 9.65202 46.9978 10.0153 46.9978C10.4493 47.0002 10.8793 47.0001 11.3144 47.0001H130.692C131.118 47.0001 131.552 47.0002 131.978 46.9978C132.34 46.9978 132.711 46.9932 133.072 46.9852C133.868 46.9754 134.661 46.9059 135.446 46.7775C136.233 46.6428 136.996 46.393 137.71 46.0363C138.42 45.6792 139.068 45.2116 139.629 44.6513C140.194 44.0958 140.667 43.4557 141.031 42.7545C141.39 42.05 141.637 41.2955 141.766 40.517C141.898 39.7394 141.972 38.9531 141.986 38.1647C141.991 37.7998 141.991 37.4463 141.991 37.0815C142 36.6546 142 36.2301 142 35.7963V11.2051C142 10.7748 142 10.348 141.991 9.92225C141.991 9.56195 141.991 9.2005 141.986 8.84019C141.972 8.05175 141.898 7.26545 141.766 6.48784C141.637 5.70981 141.389 4.95572 141.031 4.25144C140.299 2.83801 139.137 1.68748 137.71 0.961679C136.996 0.605944 136.233 0.357635 135.446 0.224954C134.661 0.0954485 133.868 0.0260119 133.072 0.0172607C132.711 0.0115267 132.34 0.00464125 131.978 0.00235C131.552 0 131.118 0.00015275 130.692 0.00015275Z" fill="#A6A6A6"/>
<path d="M10.0213 45.9718C9.65972 45.9718 9.30691 45.9672 8.94819 45.9593C8.20509 45.9497 7.46372 45.8856 6.73017 45.7676C6.04617 45.651 5.38356 45.434 4.76419 45.1238C4.1505 44.8162 3.59077 44.4129 3.10643 43.9293C2.61509 43.4514 2.20602 42.8971 1.89544 42.2884C1.58144 41.6758 1.36413 41.0191 1.25108 40.3412C1.12901 39.6129 1.06296 38.8764 1.05351 38.1381C1.04598 37.8903 1.03613 37.0652 1.03613 37.0652V9.92205C1.03613 9.92205 1.04662 9.10964 1.05356 8.87097C1.06261 8.13387 1.12828 7.39852 1.24999 6.67128C1.36324 5.99157 1.58072 5.33298 1.89489 4.71832C2.20433 4.11003 2.61113 3.55534 3.09951 3.07573C3.58735 2.59156 4.14887 2.18616 4.76361 1.87432C5.38155 1.56516 6.04291 1.34971 6.72553 1.23519C7.46149 1.11601 8.20543 1.05157 8.95111 1.04242L10.0219 1.02808H131.973L133.056 1.043C133.795 1.05169 134.532 1.11555 135.262 1.23404C135.951 1.35 136.619 1.56695 137.244 1.87777C138.476 2.50621 139.478 3.50047 140.11 4.72118C140.419 5.3316 140.633 5.98482 140.745 6.65866C140.868 7.39187 140.937 8.13299 140.951 8.87614C140.955 9.2089 140.955 9.56633 140.955 9.92205C140.964 10.3627 140.964 10.7821 140.964 11.2049V35.7961C140.964 36.223 140.964 36.6395 140.955 37.0595C140.955 37.4416 140.955 37.7916 140.95 38.1518C140.936 38.8817 140.869 39.6096 140.747 40.3297C140.637 41.0125 140.421 41.6743 140.107 42.292C139.794 42.8941 139.387 43.4435 138.901 43.9202C138.417 44.4064 137.856 44.812 137.241 45.1216C136.618 45.4341 135.95 45.6519 135.262 45.7676C134.528 45.8862 133.787 45.9503 133.043 45.9593C132.696 45.9672 132.332 45.9718 131.979 45.9718L130.692 45.9742L10.0213 45.9718Z" fill="black"/>
<path d="M29.3923 23.8534C29.4051 22.8726 29.6682 21.911 30.1571 21.058C30.646 20.205 31.3449 19.4884 32.1887 18.9747C31.6527 18.2166 30.9455 17.5928 30.1234 17.1527C29.3012 16.7126 28.3868 16.4683 27.4526 16.4394C25.4599 16.2323 23.5281 17.6201 22.5127 17.6201C21.4776 17.6201 19.9142 16.46 18.2306 16.4943C17.1417 16.5291 16.0804 16.8427 15.1502 17.4044C14.22 17.9661 13.4526 18.7568 12.9228 19.6995C10.6278 23.6339 12.3397 29.4161 14.5381 32.5964C15.638 34.1537 16.9235 35.8932 18.6055 35.8315C20.2515 35.7639 20.8662 34.7923 22.853 34.7923C24.8214 34.7923 25.3982 35.8315 27.1143 35.7923C28.8805 35.7639 29.9933 34.2281 31.0546 32.6561C31.8449 31.5465 32.453 30.3201 32.8564 29.0224C31.8303 28.5926 30.9547 27.8733 30.3387 26.9541C29.7226 26.0349 29.3935 24.9565 29.3923 23.8534Z" fill="#FFFCFC"/>
<path d="M26.1504 14.3478C27.1134 13.2031 27.5878 11.7318 27.4729 10.2463C26.0017 10.3993 24.6427 11.0956 23.6667 12.1964C23.1895 12.7341 22.824 13.3597 22.5911 14.0375C22.3582 14.7152 22.2625 15.4317 22.3095 16.146C23.0454 16.1535 23.7734 15.9956 24.4387 15.6841C25.104 15.3726 25.6893 14.9157 26.1504 14.3478Z" fill="#FFFCFC"/>
<path d="M50.1984 31.8891H44.5815L43.2326 35.833H40.8535L46.1738 21.2418H48.6456L53.9658 35.833H51.5461L50.1984 31.8891ZM45.1632 30.0693H49.6156L47.4207 23.6687H47.3593L45.1632 30.0693Z" fill="#FFFCFC"/>
<path d="M65.4562 30.5144C65.4562 33.8203 63.6692 35.9442 60.9726 35.9442C60.2895 35.9796 59.6101 35.8238 59.0123 35.4946C58.4145 35.1655 57.9223 34.6763 57.5922 34.083H57.5412V39.3522H55.3359V25.1948H57.4706V26.9642H57.5111C57.8564 26.3738 58.3568 25.8871 58.9592 25.556C59.5616 25.2248 60.2434 25.0615 60.932 25.0835C63.6587 25.0835 65.4562 27.2178 65.4562 30.5144ZM63.1894 30.5144C63.1894 28.3607 62.0654 26.9447 60.3503 26.9447C58.6653 26.9447 57.532 28.3905 57.532 30.5144C57.532 32.6579 58.6653 34.0934 60.3503 34.0934C62.0654 34.0934 63.1894 32.6877 63.1894 30.5144Z" fill="#FFFCFC"/>
<path d="M77.2804 30.5144C77.2804 33.8203 75.4934 35.9442 72.7968 35.9442C72.1137 35.9796 71.4343 35.8238 70.8365 35.4946C70.2387 35.1655 69.7466 34.6763 69.4165 34.083H69.3654V39.3522H67.1602V25.1948H69.2947V26.9642H69.3353C69.6806 26.3738 70.181 25.8871 70.7834 25.556C71.3858 25.2248 72.0676 25.0615 72.7562 25.0835C75.483 25.0835 77.2804 27.2178 77.2804 30.5144ZM75.0137 30.5144C75.0137 28.3607 73.8896 26.9447 72.1745 26.9447C70.4895 26.9447 69.3562 28.3905 69.3562 30.5144C69.3562 32.6579 70.4895 34.0934 72.1745 34.0934C73.8896 34.0934 75.0137 32.6877 75.0137 30.5144Z" fill="#FFFCFC"/>
<path d="M85.0954 31.7675C85.2588 33.2145 86.6784 34.1645 88.6182 34.1645C90.477 34.1645 91.8143 33.2144 91.8143 31.9097C91.8143 30.7772 91.0078 30.0991 89.098 29.6343L87.1882 29.1788C84.4823 28.5316 83.2261 27.2786 83.2261 25.2453C83.2261 22.7278 85.4419 20.9985 88.5881 20.9985C91.7019 20.9985 93.8365 22.7278 93.9084 25.2453H91.6822C91.5489 23.7892 90.3333 22.9102 88.5568 22.9102C86.7803 22.9102 85.5647 23.7995 85.5647 25.0938C85.5647 26.1254 86.3411 26.7324 88.2404 27.1971L89.864 27.5918C92.8874 28.2998 94.1436 29.5024 94.1436 31.6366C94.1436 34.3664 91.9476 36.0761 88.4548 36.0761C85.1869 36.0761 82.9804 34.4066 82.8379 31.7674L85.0954 31.7675Z" fill="#FFFCFC"/>
<path d="M98.9038 22.6774V25.1949H100.947V26.9241H98.9038V32.7888C98.9038 33.6999 99.3129 34.1244 100.211 34.1244C100.454 34.1203 100.696 34.1034 100.936 34.0739V35.7928C100.533 35.8675 100.122 35.9014 99.7115 35.8938C97.5364 35.8938 96.6881 35.0848 96.6881 33.0217V26.9241H95.126V25.1949H96.6881V22.6774H98.9038Z" fill="#FFFCFC"/>
<path d="M102.13 30.5145C102.13 27.1674 104.121 25.0641 107.225 25.0641C110.34 25.0641 112.322 27.1673 112.322 30.5145C112.322 33.8709 110.351 35.965 107.225 35.965C104.101 35.965 102.13 33.8708 102.13 30.5145ZM110.075 30.5145C110.075 28.2185 109.012 26.8633 107.225 26.8633C105.438 26.8633 104.377 28.2288 104.377 30.5145C104.377 32.8198 105.438 34.1646 107.225 34.1646C109.012 34.1646 110.075 32.8198 110.075 30.5145Z" fill="#FFFCFC"/>
<path d="M114.14 25.1948H116.243V27.0055H116.294C116.436 26.44 116.771 25.9402 117.241 25.5902C117.712 25.2402 118.29 25.0613 118.878 25.0835C119.132 25.0826 119.386 25.11 119.634 25.165V27.2075C119.313 27.1104 118.978 27.0658 118.643 27.0755C118.323 27.0626 118.003 27.1186 117.707 27.2395C117.41 27.3604 117.144 27.5433 116.925 27.7759C116.707 28.0084 116.542 28.2849 116.442 28.5865C116.342 28.8881 116.309 29.2076 116.345 29.523V35.8329H114.14L114.14 25.1948Z" fill="#FFFCFC"/>
<path d="M129.802 32.7085C129.505 34.6396 127.606 35.965 125.176 35.965C122.05 35.965 120.11 33.8915 120.11 30.565C120.11 27.2282 122.061 25.0641 125.083 25.0641C128.055 25.0641 129.925 27.0859 129.925 30.3114V31.0596H122.336V31.1915C122.301 31.583 122.351 31.9774 122.482 32.3486C122.612 32.7197 122.821 33.059 123.095 33.344C123.368 33.629 123.7 33.8531 124.067 34.0015C124.435 34.1499 124.83 34.2192 125.227 34.2048C125.748 34.2531 126.271 34.1336 126.718 33.864C127.165 33.5944 127.512 33.1891 127.708 32.7085L129.802 32.7085ZM122.347 29.5334H127.718C127.738 29.1814 127.684 28.8291 127.56 28.4987C127.436 28.1683 127.244 27.8669 126.996 27.6133C126.749 27.3598 126.451 27.1597 126.122 27.0255C125.793 26.8913 125.439 26.8259 125.083 26.8335C124.724 26.8313 124.368 26.8997 124.036 27.0345C123.703 27.1693 123.401 27.368 123.147 27.619C122.892 27.87 122.691 28.1684 122.553 28.497C122.416 28.8256 122.346 29.1778 122.347 29.5334Z" fill="#FFFCFC"/>
<path d="M44.8867 10.2589C45.349 10.2261 45.8129 10.2952 46.245 10.4614C46.6771 10.6276 47.0665 10.8867 47.3853 11.2199C47.704 11.5532 47.944 11.9523 48.0881 12.3886C48.2321 12.8248 48.2766 13.2873 48.2183 13.7426C48.2183 15.9825 46.9958 17.27 44.8867 17.27H42.3291V10.2589H44.8867ZM43.4288 16.2785H44.7638C45.0942 16.298 45.4248 16.2444 45.7316 16.1215C46.0384 15.9985 46.3137 15.8094 46.5373 15.5679C46.761 15.3263 46.9275 15.0385 47.0246 14.7252C47.1218 14.4119 47.1471 14.0811 47.0989 13.7569C47.1436 13.434 47.1157 13.1052 47.0171 12.7943C46.9184 12.4833 46.7515 12.1978 46.5284 11.9581C46.3052 11.7185 46.0313 11.5307 45.7262 11.4083C45.4211 11.2858 45.0925 11.2316 44.7638 11.2497H43.4288V16.2785Z" fill="#FFFCFC"/>
<path d="M49.4602 14.6221C49.4266 14.2744 49.4667 13.9236 49.5781 13.5921C49.6895 13.2607 49.8695 12.956 50.1068 12.6975C50.3441 12.439 50.6333 12.2325 50.9559 12.0912C51.2785 11.9498 51.6273 11.8768 51.9801 11.8768C52.3328 11.8768 52.6817 11.9498 53.0043 12.0912C53.3269 12.2325 53.6161 12.439 53.8533 12.6975C54.0906 12.956 54.2707 13.2607 54.382 13.5921C54.4934 13.9236 54.5336 14.2744 54.5 14.6221C54.5342 14.9701 54.4945 15.3214 54.3834 15.6534C54.2724 15.9854 54.0924 16.2907 53.8551 16.5496C53.6178 16.8086 53.3283 17.0156 53.0054 17.1572C52.6825 17.2988 52.3332 17.372 51.9801 17.372C51.6269 17.372 51.2776 17.2988 50.9547 17.1572C50.6318 17.0156 50.3424 16.8086 50.105 16.5496C49.8677 16.2907 49.6877 15.9854 49.5767 15.6534C49.4656 15.3214 49.4259 14.9701 49.4602 14.6221ZM53.4153 14.6221C53.4153 13.4752 52.895 12.8045 51.9818 12.8045C51.0652 12.8045 50.5495 13.4752 50.5495 14.6221C50.5495 15.7782 51.0652 16.4437 51.9818 16.4437C52.895 16.4437 53.4153 15.7736 53.4153 14.6221Z" fill="#FFFCFC"/>
<path d="M61.1996 17.2698H60.1057L59.0013 13.373H58.9179L57.8181 17.2698H56.7346L55.2617 11.9789H56.3313L57.2885 16.0162H57.3673L58.4659 11.9789H59.4776L60.5762 16.0162H60.6596L61.6122 11.9789H62.6667L61.1996 17.2698Z" fill="#FFFCFC"/>
<path d="M63.9053 11.9789H64.9204V12.8194H64.9992C65.1329 12.5176 65.3584 12.2645 65.6442 12.0955C65.93 11.9265 66.262 11.8501 66.5938 11.8768C66.8538 11.8574 67.1149 11.8963 67.3576 11.9904C67.6004 12.0845 67.8187 12.2315 67.9963 12.4205C68.174 12.6095 68.3064 12.8356 68.3837 13.0821C68.4611 13.3287 68.4815 13.5893 68.4433 13.8447V17.2698H67.3888V14.1069C67.3888 13.2566 67.0156 12.8338 66.2357 12.8338C66.0592 12.8256 65.883 12.8554 65.7191 12.921C65.5553 12.9866 65.4078 13.0865 65.2866 13.2138C65.1654 13.3412 65.0734 13.493 65.017 13.6588C64.9606 13.8246 64.9411 14.0006 64.9598 14.1746V17.2699H63.9053L63.9053 11.9789Z" fill="#FFFCFC"/>
<path d="M70.124 9.91345H71.1786V17.2698H70.124V9.91345Z" fill="#FFFCFC"/>
<path d="M72.6447 14.6221C72.6111 14.2743 72.6513 13.9235 72.7627 13.592C72.8741 13.2606 73.0542 12.9559 73.2915 12.6974C73.5288 12.4389 73.818 12.2324 74.1406 12.091C74.4632 11.9497 74.8121 11.8767 75.1649 11.8767C75.5177 11.8767 75.8666 11.9497 76.1892 12.091C76.5118 12.2324 76.801 12.4389 77.0383 12.6974C77.2756 12.9559 77.4557 13.2606 77.5671 13.592C77.6785 13.9235 77.7187 14.2743 77.6851 14.6221C77.7193 14.9701 77.6796 15.3214 77.5685 15.6534C77.4574 15.9854 77.2774 16.2906 77.04 16.5496C76.8027 16.8086 76.5132 17.0156 76.1903 17.1572C75.8674 17.2988 75.5181 17.372 75.1649 17.372C74.8117 17.372 74.4624 17.2988 74.1395 17.1572C73.8166 17.0156 73.5271 16.8086 73.2898 16.5496C73.0524 16.2906 72.8724 15.9854 72.7613 15.6534C72.6502 15.3214 72.6105 14.9701 72.6447 14.6221ZM76.5998 14.6221C76.5998 13.4752 76.0795 12.8045 75.1663 12.8045C74.2497 12.8045 73.7341 13.4752 73.7341 14.6221C73.7341 15.7781 74.2497 16.4437 75.1663 16.4437C76.0795 16.4436 76.5998 15.7735 76.5998 14.6221Z" fill="#FFFCFC"/>
<path d="M78.7949 15.7736C78.7949 14.8212 79.5111 14.2722 80.7823 14.1941L82.2297 14.1115V13.6548C82.2297 13.096 81.8566 12.7805 81.1358 12.7805C80.5471 12.7805 80.1392 12.9945 80.0221 13.3685H79.0012C79.109 12.4597 79.9723 11.8768 81.1845 11.8768C82.5241 11.8768 83.2796 12.5372 83.2796 13.6548V17.2699H82.2645V16.5263H82.1811C82.0117 16.7931 81.7739 17.0105 81.4919 17.1564C81.2099 17.3024 80.8939 17.3716 80.5761 17.3571C80.3517 17.3802 80.125 17.3565 79.9105 17.2875C79.696 17.2185 79.4985 17.1058 79.3307 16.9566C79.1629 16.8074 79.0285 16.6251 78.9362 16.4213C78.8439 16.2176 78.7958 15.9969 78.7949 15.7736ZM82.2297 15.3215V14.8792L80.9249 14.9618C80.189 15.0105 79.8553 15.2584 79.8553 15.7248C79.8553 16.201 80.2724 16.4781 80.8461 16.4781C81.0142 16.495 81.184 16.4782 81.3454 16.4287C81.5068 16.3793 81.6565 16.2982 81.7856 16.1903C81.9146 16.0823 82.0205 15.9498 82.0968 15.8006C82.1731 15.6513 82.2183 15.4884 82.2297 15.3215Z" fill="#FFFCFC"/>
<path d="M84.666 14.6221C84.666 12.9502 85.534 11.8911 86.884 11.8911C87.218 11.8759 87.5494 11.9551 87.8396 12.1195C88.1297 12.2838 88.3667 12.5266 88.5226 12.8194H88.6015V9.91345H89.656V17.2698H88.6455V16.4339H88.5621C88.394 16.7247 88.1488 16.9644 87.8531 17.1271C87.5573 17.2899 87.2222 17.3694 86.8841 17.357C85.5247 17.3571 84.666 16.2979 84.666 14.6221ZM85.7554 14.6221C85.7554 15.7443 86.2896 16.4196 87.1831 16.4196C88.0719 16.4196 88.6212 15.7346 88.6212 14.6267C88.6212 13.524 88.0661 12.8292 87.1831 12.8292C86.2954 12.8292 85.7554 13.509 85.7554 14.6221Z" fill="#FFFCFC"/>
<path d="M94.0188 14.6221C93.9852 14.2744 94.0253 13.9236 94.1367 13.5921C94.248 13.2607 94.4281 12.956 94.6654 12.6975C94.9027 12.439 95.1918 12.2325 95.5144 12.0912C95.837 11.9498 96.1859 11.8768 96.5387 11.8768C96.8914 11.8768 97.2403 11.9498 97.5629 12.0912C97.8855 12.2325 98.1747 12.439 98.4119 12.6975C98.6492 12.956 98.8293 13.2607 98.9406 13.5921C99.052 13.9236 99.0922 14.2744 99.0586 14.6221C99.0928 14.9701 99.0531 15.3214 98.942 15.6534C98.831 15.9854 98.651 16.2907 98.4137 16.5496C98.1764 16.8086 97.8869 17.0156 97.564 17.1572C97.2411 17.2988 96.8918 17.372 96.5387 17.372C96.1855 17.372 95.8362 17.2988 95.5133 17.1572C95.1904 17.0156 94.901 16.8086 94.6636 16.5496C94.4263 16.2907 94.2463 15.9854 94.1353 15.6534C94.0242 15.3214 93.9845 14.9701 94.0188 14.6221ZM97.9739 14.6221C97.9739 13.4752 97.4536 12.8045 96.5404 12.8045C95.6238 12.8045 95.1081 13.4752 95.1081 14.6221C95.1081 15.7782 95.6238 16.4437 96.5404 16.4437C97.4536 16.4437 97.9739 15.7736 97.9739 14.6221Z" fill="#FFFCFC"/>
<path d="M100.474 11.9789H101.489V12.8194H101.568C101.701 12.5176 101.927 12.2645 102.213 12.0955C102.498 11.9265 102.83 11.8501 103.162 11.8768C103.422 11.8574 103.683 11.8963 103.926 11.9904C104.169 12.0845 104.387 12.2315 104.565 12.4205C104.742 12.6095 104.875 12.8356 104.952 13.0821C105.029 13.3287 105.05 13.5893 105.012 13.8447V17.2698H103.957V14.1069C103.957 13.2566 103.584 12.8338 102.804 12.8338C102.628 12.8256 102.451 12.8554 102.288 12.921C102.124 12.9866 101.976 13.0865 101.855 13.2138C101.734 13.3412 101.642 13.493 101.585 13.6588C101.529 13.8246 101.509 14.0006 101.528 14.1746V17.2699H100.474V11.9789Z" fill="#FFFCFC"/>
<path d="M110.97 10.6616V12.003H112.128V12.8825H110.97V15.6032C110.97 16.1574 111.201 16.4001 111.726 16.4001C111.86 16.3996 111.995 16.3916 112.128 16.376V17.2457C111.939 17.2793 111.747 17.2971 111.554 17.2991C110.382 17.2991 109.915 16.8906 109.915 15.8705V12.8825H109.066V12.003H109.915V10.6616H110.97Z" fill="#FFFCFC"/>
<path d="M113.568 9.91345H114.614V12.8292H114.697C114.837 12.5245 115.069 12.27 115.36 12.1004C115.652 11.9307 115.989 11.8543 116.326 11.8814C116.585 11.8674 116.844 11.9102 117.084 12.0066C117.324 12.103 117.539 12.2506 117.715 12.439C117.891 12.6274 118.022 12.8519 118.1 13.0965C118.178 13.341 118.201 13.5996 118.167 13.8538V17.2698H117.111V14.1114C117.111 13.2663 116.713 12.8383 115.968 12.8383C115.787 12.8236 115.605 12.8483 115.434 12.9106C115.264 12.973 115.109 13.0714 114.981 13.1992C114.852 13.327 114.754 13.4809 114.692 13.6503C114.631 13.8197 114.607 14.0003 114.623 14.1797V17.2698H113.568L113.568 9.91345Z" fill="#FFFCFC"/>
<path d="M124.315 15.8413C124.172 16.3248 123.862 16.7431 123.438 17.0229C123.015 17.3028 122.506 17.4263 122 17.372C121.648 17.3812 121.298 17.3144 120.975 17.1763C120.651 17.0382 120.362 16.8321 120.127 16.5723C119.892 16.3124 119.718 16.0051 119.615 15.6716C119.512 15.3381 119.483 14.9865 119.532 14.641C119.485 14.2945 119.514 13.9421 119.616 13.6076C119.719 13.2731 119.893 12.9644 120.126 12.7023C120.36 12.4402 120.648 12.2308 120.97 12.0884C121.293 11.946 121.642 11.8738 121.995 11.8768C123.482 11.8768 124.379 12.8826 124.379 14.544V14.9084H120.606V14.9669C120.589 15.1611 120.614 15.3565 120.678 15.5407C120.742 15.7249 120.845 15.8937 120.979 16.0365C121.113 16.1792 121.275 16.2926 121.456 16.3694C121.637 16.4463 121.832 16.4848 122.029 16.4827C122.281 16.5127 122.537 16.4677 122.763 16.3535C122.989 16.2392 123.176 16.0609 123.3 15.8412L124.315 15.8413ZM120.606 14.1361H123.305C123.318 13.9586 123.294 13.7802 123.233 13.6125C123.173 13.4448 123.077 13.2915 122.954 13.1624C122.83 13.0333 122.68 12.9313 122.514 12.863C122.348 12.7946 122.169 12.7614 121.989 12.7655C121.807 12.7632 121.626 12.7971 121.457 12.8652C121.288 12.9333 121.135 13.0342 121.006 13.1619C120.877 13.2897 120.775 13.4417 120.706 13.609C120.638 13.7763 120.603 13.9556 120.606 14.1361Z" fill="#FFFCFC"/>
</svg>
