<?xml version="1.0" encoding="UTF-8"?>
<svg id="a" xmlns="http://www.w3.org/2000/svg" viewBox="0 0 274.54 51.74">
  <defs>
    <style>
      .c {
        fill: #060f12;
      }

      .d {
        fill: #ffc53e;
      }
    </style>
  </defs>
  <g id="b" data-name="c">
    <path class="c" d="M15.68,45.72v4.9H0V0h15.68v15.96c2.38-3.92,6.58-6.02,11.55-6.02,10.08,0,17.64,8.89,17.64,20.65s-7.56,20.79-17.71,20.79c-4.9,0-9.1-1.96-11.48-5.67h0ZM29.26,30.73c0-4.83-2.73-8.05-6.79-8.05-4.62,0-6.79,3.92-6.79,7.07v1.89c0,3.22,2.17,7.07,6.79,7.07,4.06,0,6.79-3.29,6.79-7.98h0Z"/>
    <path class="c" d="M47.46,36.41V10.79h15.61v22.4c0,3.78,1.47,5.32,4.06,5.32,2.8,0,5.04-2.1,5.04-6.02V10.79h15.61v39.83h-15.61v-4.55c-2.52,3.5-6.37,5.46-11.34,5.46-8.4,0-13.37-6.02-13.37-15.12h0Z"/>
    <path class="c" d="M101.57,23.8h-10.78v-13.02h32.69l-11.55,26.81h11.55v13.02h-33.39l11.48-26.81h0Z"/>
    <path class="c" d="M141.89,45.72v4.9h-15.68V0h15.68v15.96c2.38-3.92,6.58-6.02,11.55-6.02,10.08,0,17.64,8.89,17.64,20.65s-7.56,20.79-17.71,20.79c-4.9,0-9.1-1.96-11.48-5.67h0ZM155.47,30.73c0-4.83-2.73-8.05-6.79-8.05-4.62,0-6.79,3.92-6.79,7.07v1.89c0,3.22,2.17,7.07,6.79,7.07,4.06,0,6.79-3.29,6.79-7.98h0Z"/>
    <path class="c" d="M172.69,30.95c0-12.25,9.24-21.28,21.63-21.28,11.69,0,19.6,8.33,19.6,20.65,0,1.54-.14,3.08-.28,4.55h-25.9c.98,3.64,5.04,5.81,11.13,5.81,3.92,0,7.77-.91,10.43-2.52v10.64c-3.01,1.82-8.05,2.94-13.23,2.94-14,0-23.38-8.47-23.38-20.79h0ZM200.41,26.18c-.14-3.78-2.45-5.88-5.95-5.88s-6.02,2.31-6.72,5.88h12.67Z"/>
    <path class="c" d="M215.46,30.95c0-12.25,9.24-21.28,21.63-21.28,11.69,0,19.6,8.33,19.6,20.65,0,1.54-.14,3.08-.28,4.55h-25.9c.98,3.64,5.04,5.81,11.13,5.81,3.92,0,7.77-.91,10.43-2.52v10.64c-3.01,1.82-8.05,2.94-13.23,2.94-14,0-23.38-8.47-23.38-20.79h0ZM243.18,26.18c-.14-3.78-2.45-5.88-5.95-5.88s-6.02,2.31-6.72,5.88h12.67Z"/>
    <path class="d" d="M256.48,42.85c0-4.9,3.99-8.75,9.03-8.75s9.03,3.85,9.03,8.75-3.99,8.75-9.03,8.75-9.03-3.92-9.03-8.75Z"/>
  </g>
</svg>