<?xml version="1.0" encoding="UTF-8"?>
<svg id="a" xmlns="http://www.w3.org/2000/svg" version="1.1" viewBox="0 0 192.2 36.2">
  <!-- Generator: Adobe Illustrator 30.1.0, SVG Export Plug-In . SVG Version: 2.1.1 Build 136)  -->
  <defs>
    <style>
      .st0 {
        fill: #060f12;
      }

      .st1 {
        fill: #ffc233;
      }
    </style>
  </defs>
  <path class="st0" d="M11,32v3.4H0V0h11v11.2c1.7-2.7,4.6-4.2,8.1-4.2,7.1,0,12.3,6.2,12.3,14.5s-5.3,14.6-12.4,14.6-6.4-1.4-8-4ZM20.5,21.5c0-3.4-1.9-5.6-4.8-5.6s-4.8,2.7-4.8,4.9v1.3c0,2.3,1.5,4.9,4.8,4.9s4.8-2.3,4.8-5.6Z"/>
  <path class="st0" d="M33.2,25.5V7.5h10.9v15.7c0,2.6,1,3.7,2.8,3.7s3.5-1.5,3.5-4.2V7.5h10.9v27.9h-10.9v-3.2c-1.8,2.4-4.5,3.8-7.9,3.8-5.9,0-9.4-4.2-9.4-10.6Z"/>
  <path class="st0" d="M71.1,16.7h-7.5V7.5h22.9l-8.1,18.8h8.1v9.1h-23.4l8-18.8Z"/>
  <path class="st0" d="M99.3,32v3.4h-11V0h11v11.2c1.7-2.7,4.6-4.2,8.1-4.2,7.1,0,12.3,6.2,12.3,14.5s-5.3,14.6-12.4,14.6-6.4-1.4-8-4ZM108.8,21.5c0-3.4-1.9-5.6-4.8-5.6s-4.8,2.7-4.8,4.9v1.3c0,2.3,1.5,4.9,4.8,4.9s4.8-2.3,4.8-5.6Z"/>
  <path class="st0" d="M120.9,21.7c0-8.6,6.5-14.9,15.1-14.9s13.7,5.8,13.7,14.5,0,2.2-.2,3.2h-18.1c.7,2.5,3.5,4.1,7.8,4.1s5.4-.6,7.3-1.8v7.4c-2.1,1.3-5.6,2.1-9.3,2.1-9.8,0-16.4-5.9-16.4-14.6ZM140.3,18.3c0-2.6-1.7-4.1-4.2-4.1s-4.2,1.6-4.7,4.1h8.9Z"/>
  <path class="st0" d="M150.8,21.7c0-8.6,6.5-14.9,15.1-14.9s13.7,5.8,13.7,14.5,0,2.2-.2,3.2h-18.1c.7,2.5,3.5,4.1,7.8,4.1s5.4-.6,7.3-1.8v7.4c-2.1,1.3-5.6,2.1-9.3,2.1-9.8,0-16.4-5.9-16.4-14.6ZM170.2,18.3c0-2.6-1.7-4.1-4.2-4.1s-4.2,1.6-4.7,4.1h8.9Z"/>
  <path class="st1" d="M179.5,30c0-3.4,2.8-6.1,6.3-6.1s6.3,2.7,6.3,6.1-2.8,6.1-6.3,6.1-6.3-2.7-6.3-6.1Z"/>
</svg>