<svg width="157" height="47" viewBox="0 0 157 47" fill="none" xmlns="http://www.w3.org/2000/svg">
<g clip-path="url(#clip0_835_380)">
<path d="M151.245 0H5.74888C2.53395 0 -0.0722656 2.6307 -0.0722656 5.87583V41.1242C-0.0722656 44.3693 2.53395 47 5.74888 47H151.245C154.46 47 157.066 44.3693 157.066 41.1242V5.87583C157.066 2.6307 154.46 0 151.245 0Z" fill="black"/>
<path d="M151.251 0.941724C153.945 0.941724 156.139 3.15677 156.139 5.87583V41.1242C156.139 43.8432 153.945 46.0583 151.251 46.0583H5.74888C3.05512 46.0583 0.860694 43.8432 0.860694 41.1242V5.87583C0.860694 3.15677 3.05512 0.941724 5.74888 0.941724H151.251ZM151.251 0H5.74888C2.54922 0 -0.0722656 2.64611 -0.0722656 5.87583V41.1242C-0.0722656 44.3539 2.54922 47 5.74888 47H151.251C154.451 47 157.072 44.3539 157.072 41.1242V5.87583C157.072 2.64611 154.451 0 151.251 0Z" fill="#A6A6A6"/>
<path d="M55.1237 12.0368C55.1237 13.0183 54.8346 13.8075 54.2565 14.3911C53.5994 15.0875 52.7453 15.4323 51.6941 15.4323C50.6429 15.4323 49.8282 15.0808 49.1252 14.3779C48.4222 13.6749 48.0674 12.7995 48.0674 11.7516C48.0674 10.7038 48.4222 9.83504 49.1252 9.12543C49.8282 8.42245 50.6889 8.06433 51.6941 8.06433C52.1934 8.06433 52.673 8.16381 53.1264 8.35613C53.5797 8.55509 53.9477 8.81373 54.217 9.14532L53.606 9.76872C53.1461 9.21164 52.5088 8.93311 51.6941 8.93311C50.9582 8.93311 50.3209 9.19175 49.7888 9.71566C49.2566 10.2396 48.9872 10.916 48.9872 11.745C48.9872 12.574 49.2566 13.2571 49.7888 13.7744C50.3275 14.2983 50.9582 14.5569 51.6941 14.5569C52.4759 14.5569 53.1264 14.2916 53.6454 13.7677C53.9805 13.4229 54.1776 12.952 54.2302 12.3419H51.6941V11.493H55.0777C55.1106 11.6787 55.1237 11.8511 55.1237 12.0236V12.0368Z" fill="#FFFCFC" stroke="#FFFCFC" stroke-width="0.2" stroke-miterlimit="10"/>
<path d="M60.4912 9.09224H57.3112V11.3272H60.1824V12.1761H57.3112V14.411H60.4912V15.2798H56.4111V8.2301H60.4912V9.09888V9.09224Z" fill="#FFFCFC" stroke="#FFFCFC" stroke-width="0.2" stroke-miterlimit="10"/>
<path d="M64.2762 15.2732H63.3761V9.09228H61.4248V8.22351H66.221V9.09228H64.2697V15.2732H64.2762Z" fill="#FFFCFC" stroke="#FFFCFC" stroke-width="0.2" stroke-miterlimit="10"/>
<path d="M69.6963 15.2732V8.22351H70.5898V15.2732H69.6963Z" fill="#FFFCFC" stroke="#FFFCFC" stroke-width="0.2" stroke-miterlimit="10"/>
<path d="M74.578 15.2732H73.6779V9.09228H71.7266V8.22351H76.5228V9.09228H74.5714V15.2732H74.578Z" fill="#FFFCFC" stroke="#FFFCFC" stroke-width="0.2" stroke-miterlimit="10"/>
<path d="M85.6093 14.3646C84.9195 15.0808 84.0719 15.4323 83.047 15.4323C82.022 15.4323 81.1745 15.0742 80.4846 14.3646C79.7948 13.655 79.4531 12.7795 79.4531 11.7516C79.4531 10.7237 79.7948 9.84826 80.4846 9.13865C81.1679 8.42241 82.022 8.07092 83.047 8.07092C84.0719 8.07092 84.9129 8.42904 85.6028 9.14528C86.2926 9.86153 86.6343 10.7303 86.6343 11.7516C86.6343 12.7729 86.2926 13.655 85.6028 14.3646H85.6093ZM81.1548 13.7743C81.6738 14.3049 82.3046 14.5635 83.0536 14.5635C83.8026 14.5635 84.4333 14.2982 84.9523 13.7743C85.4714 13.2438 85.7276 12.574 85.7276 11.7516C85.7276 10.9293 85.4648 10.2528 84.9523 9.72889C84.4399 9.19834 83.8026 8.9397 83.0536 8.9397C82.3046 8.9397 81.6738 9.20497 81.1548 9.72889C80.6423 10.2594 80.3795 10.9293 80.3795 11.7516C80.3795 12.574 80.6423 13.2504 81.1548 13.7743Z" fill="#FFFCFC" stroke="#FFFCFC" stroke-width="0.2" stroke-miterlimit="10"/>
<path d="M87.9021 15.2732V8.22351H88.9927L92.3895 13.7081H92.4289L92.3895 12.3485V8.22351H93.2896V15.2732H92.3501L88.7956 9.52336H88.7562L88.7956 10.8829V15.2732H87.8955H87.9021Z" fill="#FFFCFC" stroke="#FFFCFC" stroke-width="0.2" stroke-miterlimit="10"/>
<path d="M79.2427 25.5592C76.503 25.5592 74.2757 27.6615 74.2757 30.553C74.2757 33.4445 76.5095 35.5468 79.2427 35.5468C81.9759 35.5468 84.2097 33.4246 84.2097 30.553C84.2097 27.6814 81.9759 25.5592 79.2427 25.5592ZM79.2427 33.5837C77.7447 33.5837 76.4504 32.3369 76.4504 30.553C76.4504 28.769 77.7447 27.5222 79.2427 27.5222C80.7407 27.5222 82.035 28.7491 82.035 30.553C82.035 32.3568 80.7407 33.5837 79.2427 33.5837ZM68.402 25.5592C65.6622 25.5592 63.435 27.6615 63.435 30.553C63.435 33.4445 65.6688 35.5468 68.402 35.5468C71.1352 35.5468 73.369 33.4246 73.369 30.553C73.369 27.6814 71.1352 25.5592 68.402 25.5592ZM68.402 33.5837C66.904 33.5837 65.6097 32.3369 65.6097 30.553C65.6097 28.769 66.904 27.5222 68.402 27.5222C69.9 27.5222 71.1943 28.7491 71.1943 30.553C71.1943 32.3568 69.9 33.5837 68.402 33.5837ZM55.5048 27.0911V29.2133H60.531C60.3798 30.4071 59.9856 31.2758 59.3878 31.886C58.6585 32.6221 57.5153 33.4378 55.5048 33.4378C52.4103 33.4378 49.9925 30.9177 49.9925 27.7941C49.9925 24.6705 52.4103 22.1504 55.5048 22.1504C57.1736 22.1504 58.3957 22.8136 59.2892 23.6625L60.7741 22.1637C59.5192 20.95 57.8503 20.0282 55.5048 20.0282C51.2671 20.0282 47.7061 23.5099 47.7061 27.7875C47.7061 32.065 51.2671 35.5468 55.5048 35.5468C57.7912 35.5468 59.5192 34.7907 60.866 33.3715C62.2523 31.9722 62.686 30.0025 62.686 28.4109C62.686 27.9201 62.6465 27.4625 62.5743 27.0845H55.5048V27.0911ZM108.243 28.7358C107.829 27.6217 106.574 25.5525 104.006 25.5525C101.437 25.5525 99.3342 27.5753 99.3342 30.5463C99.3342 33.345 101.437 35.5401 104.249 35.5401C106.515 35.5401 107.829 34.1408 108.375 33.3251L106.686 32.191C106.121 33.0266 105.352 33.5705 104.249 33.5705C103.145 33.5705 102.356 33.0598 101.851 32.0584L108.473 29.2929L108.25 28.7226L108.243 28.7358ZM101.489 30.4004C101.43 28.4706 102.974 27.4824 104.078 27.4824C104.939 27.4824 105.674 27.9201 105.917 28.5435L101.489 30.4004ZM96.1083 35.2483H98.283V20.5587H96.1083V35.2483ZM92.5472 26.6733H92.475C91.9888 26.0897 91.0492 25.5592 89.8666 25.5592C87.3897 25.5592 85.123 27.7543 85.123 30.5729C85.123 33.3914 87.3897 35.5534 89.8666 35.5534C91.0492 35.5534 91.9822 35.0228 92.475 34.4193H92.5472V35.1356C92.5472 37.0456 91.5354 38.0669 89.8995 38.0669C88.5657 38.0669 87.7445 37.0986 87.4028 36.2895L85.5106 37.0853C86.0559 38.4117 87.5014 40.0365 89.8995 40.0365C92.4487 40.0365 94.6037 38.5245 94.6037 34.8305V25.8576H92.5407V26.6733H92.5472ZM90.0506 33.5837C88.5526 33.5837 87.2911 32.317 87.2911 30.5729C87.2911 28.8287 88.546 27.5222 90.0506 27.5222C91.5551 27.5222 92.6984 28.8088 92.6984 30.5729C92.6984 32.3369 91.5354 33.5837 90.0506 33.5837ZM118.434 20.5587H113.23V35.2483H115.405V29.6842H118.44C120.845 29.6842 123.217 27.9267 123.217 25.1215C123.217 22.3162 120.851 20.5587 118.44 20.5587H118.434ZM118.486 27.6416H115.398V22.608H118.486C120.109 22.608 121.029 23.9675 121.029 25.1281C121.029 26.2887 120.109 27.6482 118.486 27.6482V27.6416ZM131.909 25.5326C130.339 25.5326 128.709 26.229 128.033 27.7808L129.964 28.5966C130.378 27.7808 131.14 27.5222 131.948 27.5222C133.072 27.5222 134.215 28.2053 134.235 29.4123V29.5648C133.841 29.3393 133 28.9945 131.968 28.9945C129.892 28.9945 127.776 30.1484 127.776 32.3038C127.776 34.2668 129.478 35.5335 131.39 35.5335C132.848 35.5335 133.657 34.8703 134.162 34.101H134.235V35.2351H136.331V29.6046C136.331 26.9983 134.399 25.5393 131.909 25.5393V25.5326ZM131.653 33.5771C130.943 33.5771 129.951 33.219 129.951 32.3303C129.951 31.1963 131.186 30.7585 132.251 30.7585C133.203 30.7585 133.657 30.9641 134.235 31.2493C134.064 32.6088 132.908 33.5705 131.653 33.5705V33.5771ZM143.965 25.851L141.475 32.2176H141.403L138.821 25.851H136.482L140.358 34.7509L138.151 39.7049H140.417L146.39 25.851H143.972H143.965ZM124.406 35.2483H126.581V20.5587H124.406V35.2483Z" fill="#FFFCFC"/>
<path d="M24.0466 22.8202L11.6553 36.0972C11.6553 36.0972 11.6553 36.0972 11.6553 36.1038C12.0363 37.543 13.3372 38.6041 14.8878 38.6041C15.5054 38.6041 16.0901 38.4316 16.5829 38.1398L16.6223 38.1133L30.5707 29.9893L24.04 22.8136L24.0466 22.8202Z" fill="#EA4335"/>
<path d="M36.5827 20.5588H36.5696L30.5448 17.024L23.7578 23.1187L30.5645 29.9893L36.5564 26.501C37.6077 25.9306 38.3172 24.8099 38.3172 23.5233C38.3172 22.2367 37.6142 21.1292 36.5761 20.5588H36.5827Z" fill="#FBBC04"/>
<path d="M11.6488 10.9028C11.5765 11.1814 11.5371 11.4732 11.5371 11.7716V35.2351C11.5371 35.5336 11.5765 35.8254 11.6488 36.1039L24.4671 23.1651L11.6488 10.9028Z" fill="#4285F4"/>
<path d="M24.1385 23.4967L30.551 17.024L16.6157 8.86682C16.1098 8.56175 15.5185 8.38269 14.8878 8.38269C13.3372 8.38269 12.0363 9.44379 11.6553 10.8895L24.1385 23.4901V23.4967Z" fill="#34A853"/>
</g>
<defs>
<clipPath id="clip0_835_380">
<rect width="157" height="47" fill="white"/>
</clipPath>
</defs>
</svg>
